# xmcd CD database file
#
# Track frame offsets:
#	150
#	34293
#	59246
#	92570
#	121107
#	134275
#	154524
#	166221
#	174549
#	201549
#	216394
#	239807
#	260430
#
# Disc length: 3833 seconds
#
# Revision: 20
# Processed by: cddbd v1.5.2PL0 Copyright (c) Steve Scherf et al.
# Submitted via: CDex 1.90
#
DISCID=c40ef70d
DTITLE=Friedrich Gulda (piano) - Beethoven?Piano Sonatas?Complete??Disc 7?
DYEAR=1967
DGENRE=Classical
TTITLE0=Beethoven?Piano Sonata in F minor Op.57?Appassionata??I. Allegro assai
TTITLE1=Beethoven?Piano Sonata in F minor Op.57?Appassionata??II. Andante con moto
TTITLE2=Beethoven?Piano Sonata in F minor Op.57?Appassionata??III. Allegro ma non troppo?presto
TTITLE3=Beethoven?Piano Sonata in F sharp major Op.78?I. Adagio cantabile?allegro ma non troppo
TTITLE4=Beethoven?Piano Sonata in F sharp major Op.78?II. Allegro vivace
TTITLE5=Beethoven?Piano Sonata in G major Op.79?I. Presto alla tedesca
TTITLE6=Beethoven?Piano Sonata in G major Op.79?II. Andante
TTITLE7=Beethoven?Piano Sonata in G major Op.79?III. Vivace
TTITLE8=Beethoven?Piano Sonata in E flat major Op.81a?Les Adieux??I. Das Lebewohl
TTITLE9=Beethoven?Piano Sonata in E flat major Op.81a?Les Adieux??II. Die Abwesenheit
TTITLE10=Beethoven?Piano Sonata in E flat major Op.81a?Les Adieux??III. Das Wiedersehen
TTITLE11=Beethoven?Piano Sonata in E minor Op.90?I. Mit Lebhaftigkeit und durchaus mit Empfindung und Ausdruck
TTITLE12=Beethoven?Piano Sonata in E minor Op.90?II. Nicht zu geschwind und sehr singbar vorzutragen
EXTD=CD 7/12 Box YEAR: 1967
EXTT0=
EXTT1=
EXTT2=
EXTT3=
EXTT4=
EXTT5=
EXTT6=
EXTT7=
EXTT8=
EXTT9=
EXTT10=
EXTT11=
EXTT12=
PLAYORDER=
